<svg width="58" height="55" viewBox="0 0 58 55" fill="none" xmlns="http://www.w3.org/2000/svg">
<path d="M58 27.5L51.6727 20.1667L52.4636 10.4762L42.9727 8.38095L37.9636 0L29 3.92857L20.0364 0L15.0273 8.38095L5.53636 10.4762L6.32727 20.1667L0 27.5L6.32727 34.8333L5.53636 44.5238L15.0273 46.619L20.0364 55L29 51.0714L37.9636 55L42.9727 46.619L52.4636 44.5238L51.6727 34.8333L58 27.5ZM46.6636 40.3333L39.5455 41.9048L35.8545 48.1905L29 45.3095L22.1455 48.1905L18.4545 41.9048L11.3364 40.3333L11.8636 33L7.11818 27.5L11.8636 22L11.3364 14.6667L18.4545 13.0952L22.1455 6.80952L29 9.69048L35.8545 6.80952L39.5455 13.0952L46.6636 14.6667L46.1364 22L50.8818 27.5L46.1364 33L46.6636 40.3333ZM41.1273 15.9762L44.8182 19.6429L23.7273 40.5952L13.1818 30.119L16.8727 26.4524L23.7273 33.2619L41.1273 15.9762Z" fill="#2E7D5C"/>
</svg>
