<svg width="47" height="47" viewBox="0 0 47 47" fill="none" xmlns="http://www.w3.org/2000/svg">
<path d="M25.7917 0.697957V5.32712C34.8438 6.45004 41.8333 14.15 41.8333 23.5C41.8333 30.8563 37.4333 37.25 31.0167 40.1834L25.7917 34.9584V46.4167H37.25L34.4542 43.6209C41.6271 39.7021 46.4167 32.1167 46.4167 23.5C46.4167 11.6292 37.3646 1.84379 25.7917 0.697957ZM21.2083 0.583374C16.7396 1.04171 12.5 2.78337 9.01668 5.64796L12.2708 8.90212C14.8604 6.88546 17.9542 5.62504 21.2083 5.16671V0.583374ZM5.62501 9.01671C2.78334 12.5 1.04168 16.7396 0.583344 21.2084H5.16668C5.60209 17.9542 6.88543 14.8605 8.90209 12.2709L5.62501 9.01671ZM9.75001 14.3334V18.9167H16.625V21.2084H14.3333C11.8125 21.2084 9.75001 23.2709 9.75001 25.7917V32.6667H21.2083V28.0834H14.3333V25.7917H16.625C19.1688 25.7917 21.2083 23.7521 21.2083 21.2084V18.9167C21.2083 16.3959 19.1688 14.3334 16.625 14.3334H9.75001ZM23.5 14.3334V25.7917H30.375V32.6667H34.9583V25.7917H37.25V21.2084H34.9583V14.3334H30.375V21.2084H28.0833V14.3334H23.5ZM0.583344 25.7917C1.04168 30.2605 2.80626 34.5 5.67084 37.9834L8.92501 34.7292C6.90834 32.1396 5.62501 29.0459 5.16668 25.7917H0.583344ZM12.2938 38.098L9.01668 41.3521C12.5 44.1938 16.7396 45.9584 21.2083 46.4167V41.8334C17.9542 41.398 14.8833 40.1146 12.2938 38.098Z" fill="#2E7D5C"/>
</svg>
