<svg width="73" height="55" viewBox="0 0 73 55" fill="none" xmlns="http://www.w3.org/2000/svg">
<path d="M66.9167 0H6.08333C2.76792 0.122222 0.121667 2.78056 0 6.11111V48.8889C0.121667 52.2194 2.76792 54.8778 6.08333 55H66.9167C70.2321 54.8778 72.8783 52.2194 73 48.8889V6.11111C72.8783 2.78056 70.2321 0.122222 66.9167 0ZM66.9167 48.8889H6.08333V6.11111H66.9167V48.8889ZM42.5833 42.7778V38.9583C42.5833 33.8861 32.4242 31.3194 27.375 31.3194C22.3258 31.3194 12.1667 33.8861 12.1667 38.9583V42.7778H42.5833ZM27.375 12.2222C25.3583 12.2222 23.4241 13.027 21.998 14.4596C20.572 15.8922 19.7708 17.8352 19.7708 19.8611C19.7708 20.8643 19.9675 21.8576 20.3497 22.7844C20.7318 23.7112 21.2919 24.5533 21.998 25.2626C23.4241 26.6952 25.3583 27.5 27.375 27.5C28.3736 27.5 29.3624 27.3024 30.285 26.9185C31.2076 26.5346 32.0458 25.972 32.752 25.2626C33.4581 24.5533 34.0182 23.7112 34.4003 22.7844C34.7825 21.8576 34.9792 20.8643 34.9792 19.8611C34.9792 18.858 34.7825 17.8646 34.4003 16.9378C34.0182 16.011 33.4581 15.1689 32.752 14.4596C32.0458 13.7503 31.2076 13.1876 30.285 12.8037C29.3624 12.4198 28.3736 12.2222 27.375 12.2222ZM42.5833 12.2222V15.2778H60.8333V12.2222H42.5833ZM42.5833 18.3333V21.3889H60.8333V18.3333H42.5833ZM42.5833 24.4444V27.5H54.75V24.4444H42.5833Z" fill="#2E7D5C"/>
</svg>
