<svg width="55" height="55" viewBox="0 0 55 55" fill="none" xmlns="http://www.w3.org/2000/svg">
<path d="M24.4444 36.6667H42.7778V42.7778H24.4444V36.6667ZM18.3333 12.2222H12.2222V18.3333H18.3333V12.2222ZM24.4444 30.5556H42.7778V24.4444H24.4444V30.5556ZM24.4444 18.3333H42.7778V12.2222H24.4444V18.3333ZM18.3333 24.4444H12.2222V30.5556H18.3333V24.4444ZM55 6.11111V48.8889C55 52.25 52.25 55 48.8889 55H6.11111C2.75 55 0 52.25 0 48.8889V6.11111C0 2.75 2.75 0 6.11111 0H48.8889C52.25 0 55 2.75 55 6.11111ZM48.8889 6.11111H6.11111V48.8889H48.8889V6.11111ZM18.3333 36.6667H12.2222V42.7778H18.3333V36.6667Z" fill="#2E7D5C"/>
</svg>
