<svg width="42" height="55" viewBox="0 0 42 55" fill="none" xmlns="http://www.w3.org/2000/svg">
<path d="M13.1261 20.9536C13.1533 18.8783 13.9916 16.8956 15.4624 15.428C16.9332 13.9604 18.9202 13.1239 21 13.0968C23.0798 13.1239 25.0668 13.9604 26.5376 15.428C28.0084 16.8956 28.8467 18.8783 28.8739 20.9536C28.8467 23.029 28.0084 25.0117 26.5376 26.4793C25.0668 27.9469 23.0798 28.7834 21 28.8105C18.9202 28.7834 16.9332 27.9469 15.4624 26.4793C13.9916 25.0117 13.1533 23.029 13.1261 20.9536ZM21 44.5242L31.4986 47.1431V39.0768C28.3324 40.9793 24.6956 41.9592 21 41.9052C17.3044 41.9592 13.6676 40.9793 10.5014 39.0768V47.1431M21 5.23992C18.9317 5.20226 16.8775 5.58709 14.9638 6.37076C13.05 7.15442 11.3171 8.32035 9.87151 9.79689C8.37576 11.2409 7.19377 12.9766 6.39907 14.8959C5.60438 16.8153 5.21397 18.8773 5.25213 20.9536C5.22478 23.0168 5.62045 25.0638 6.41482 26.9689C7.2092 28.874 8.38551 30.5969 9.87151 32.0318C11.3103 33.5225 13.0402 34.703 14.9543 35.5003C16.8684 36.2977 18.926 36.6948 21 36.6673C23.074 36.6948 25.1316 36.2977 27.0457 35.5003C28.9598 34.703 30.6897 33.5225 32.1285 32.0318C33.6145 30.5969 34.7908 28.874 35.5852 26.9689C36.3795 25.0638 36.7752 23.0168 36.7479 20.9536C36.786 18.8773 36.3956 16.8153 35.6009 14.8959C34.8062 12.9766 33.6242 11.2409 32.1285 9.79689C30.6829 8.32035 28.95 7.15442 27.0362 6.37076C25.1225 5.58709 23.0683 5.20226 21 5.23992ZM41.9972 20.9536C41.9413 23.4675 41.4346 25.9511 40.5011 28.2867C39.6601 30.6632 38.3878 32.8649 36.7479 34.7817V55L21 49.7621L5.25213 55V34.7817C1.85503 30.9749 -0.0142156 26.0508 0.00284251 20.9536C-0.0434165 18.2053 0.475375 15.4766 1.52719 12.9361C2.579 10.3956 4.14152 8.09718 6.11826 6.18274C8.04397 4.19259 10.358 2.61739 12.9176 1.55434C15.4771 0.491304 18.2279 -0.0370091 21 0.00201447C23.7721 -0.0370091 26.5229 0.491304 29.0824 1.55434C31.642 2.61739 33.956 4.19259 35.8817 6.18274C37.8585 8.09718 39.421 10.3956 40.4728 12.9361C41.5246 15.4766 42.0434 18.2053 41.9972 20.9536Z" fill="#2E7D5C"/>
</svg>
